:version 1.10
:name ASF
:units
  mass 1
  length 1
  angle deg
:documentation
  ASF file generated by Kaydara
:root
  axis xyz
  order  tx ty tz rx ry rz
  position 0 0 0
  orientation 0 0 0
:bonedata
  begin
    id 1
    name RightUpLegDummy
    direction -0.718183 -0.695806 0.00816078
    length 4.904
    axis 0 0 0 xyz
  end
  begin
    id 2
    name RightUpLeg
    direction 3.53373e-006 -0.995788 0.0916898
    length 17.4976
    axis -3.49089 -0.000906625 0.000286804 xyz
    dof rx ry rz
  end
  begin
    id 3
    name RightLeg
    direction 0.00371092 -0.995096 -0.0988419
    length 16.5821
    axis 3.68512 0.0193738 -0.131023 xyz
    dof rx ry rz
  end
  begin
    id 4
    name RightFoot
    direction 0.00079151 -0.46099 0.887405
    length 3.77069
    axis 4.81691e-005 -0.120479 -0.188788 xyz
    dof rx ry rz
  end
  begin
    id 5
    name RightToes
    direction 0 0 0
    length 0
    axis 0 0 0 xyz
    dof rx ry rz
  end
  begin
    id 6
    name SpineDummy
    direction 8.3039e-015 1 4.57515e-016
    length 4.6813
    axis 0 0 0 xyz
  end
  begin
    id 7
    name Spine
    direction -3.15643e-008 0.999988 0.00495137
    length 10.1015
    axis -0.001389 0.000121418 2.40972e-006 xyz
    dof rx ry rz
  end
  begin
    id 8
    name Spine1
    direction 0 0 0
    length 0
    axis -0.001389 0.000121451 1.30017e-006 xyz
    dof rx ry rz
  end
  begin
    id 9
    name HEadDummy
    direction -1.99912e-008 0.999999 0.00127422
    length 3.43865
    axis -0.001389 0.000121451 1.30017e-006 xyz
  end
  begin
    id 10
    name HEad
    direction 0 0 0
    length 0
    axis 0 0 0 xyz
    dof rx ry rz
  end
  begin
    id 11
    name LeftShoulder1Dummy
    direction 0.998891 -0.0402509 -0.0244456
    length 3.5433
    axis -0.001389 0.000121451 1.30017e-006 xyz
  end
  begin
    id 12
    name LeftShoulder1
    direction 0.99951 -0.000327763 0.0313091
    length 4.05031
    axis -0.001389 0.000121451 1.30017e-006 xyz
    dof rx ry rz
  end
  begin
    id 13
    name LeftArm
    direction 0.998561 -0.00100056 -0.0536182
    length 10.3537
    axis -23.1894 0.134784 0.967509 xyz
    dof rx ry rz
  end
  begin
    id 14
    name LeftForeArm
    direction 0.998903 0.00866432 0.046012
    length 8.70632
    axis -9.91835 -0.06569 -0.177794 xyz
    dof rx ry rz
  end
  begin
    id 15
    name LeftHand
    direction 0 0 0
    length 0
    axis 0 0 0 xyz
    dof rx ry rz
  end
  begin
    id 16
    name RightShoulderDummy
    direction -0.998891 -0.0402509 -0.0244414
    length 3.5433
    axis -0.001389 0.000121451 1.30017e-006 xyz
  end
  begin
    id 17
    name RightShoulder
    direction -0.99951 -0.000327807 0.0313133
    length 4.05031
    axis 0.215806 0.000203643 -0.0068026 xyz
    dof rx ry rz
  end
  begin
    id 18
    name RightArm
    direction -0.998573 -0.000999564 -0.053403
    length 10.3947
    axis -23.2009 -0.134239 -0.964101 xyz
    dof rx ry rz
  end
  begin
    id 19
    name RightForeArm
    direction -0.998898 0.00868028 0.0461306
    length 8.68355
    axis -9.92322 0.0658061 0.178868 xyz
    dof rx ry rz
  end
  begin
    id 20
    name RightHand
    direction 0 0 0
    length 0
    axis 0 0 0 xyz
    dof rx ry rz
  end
  begin
    id 21
    name LeftUpLegDummy
    direction 0.718183 -0.695806 0.00816078
    length 4.904
    axis 0 0 0 xyz
  end
  begin
    id 22
    name LeftUpLeg
    direction -6.81752e-006 -0.995793 0.0916337
    length 17.4976
    axis -3.48766 0.00143442 -0.000524262 xyz
    dof rx ry rz
  end
  begin
    id 23
    name LeftLeg
    direction -0.00601358 -0.995091 -0.0987824
    length 16.5821
    axis 3.68178 -0.00654042 -0.000285133 xyz
    dof rx ry rz
  end
  begin
    id 24
    name LeftFoot
    direction -0.00417578 -0.460984 0.887399
    length 3.77069
    axis 1.87233e-006 4.66016e-005 -8.6538e-006 xyz
    dof rx ry rz
  end
  begin
    id 25
    name LeftToes
    direction 0 0 0
    length 0
    axis 0 0 0 xyz
    dof rx ry rz
  end
:hierarchy
  begin
    root RightUpLegDummy SpineDummy LeftUpLegDummy
    RightUpLegDummy RightUpLeg
    RightUpLeg RightLeg
    RightLeg RightFoot
    RightFoot RightToes
    SpineDummy Spine
    Spine Spine1
    Spine1 HEadDummy LeftShoulder1Dummy RightShoulderDummy
    HEadDummy HEad
    LeftShoulder1Dummy LeftShoulder1
    LeftShoulder1 LeftArm
    LeftArm LeftForeArm
    LeftForeArm LeftHand
    RightShoulderDummy RightShoulder
    RightShoulder RightArm
    RightArm RightForeArm
    RightForeArm RightHand
    LeftUpLegDummy LeftUpLeg
    LeftUpLeg LeftLeg
    LeftLeg LeftFoot
    LeftFoot LeftToes
  end

:SAMPLES-PER-SECOND 30
:FULLY-SPECIFIED
:DEGREES
657
root  11.6427 40.0794 10.6997 19.4313 78.9934 20.701
RightUpLeg  -10.6134 -15.0801 -13.5541
RightLeg  15.7379 -0.545476 -0.0574584
RightFoot  0.679833 -0.562977 5.3861
RightToes  0.000481921 0.542163 -0.142578
Spine  18.2121 -2.36196 1.24235
Spine1  8.32338 -3.98673 6.02201
HEad  -4.91414 11.9407 -11.8744
LeftShoulder1  6.37252 -11.9843 -35.0798
LeftArm  -7.79471 -11.7691 -46.2071
LeftForeArm  -167.846 -48.2509 -170.129
LeftHand  -0.25398 0.0180481 5.50724
RightShoulder  4.60687 9.52256 29.3913
RightArm  7.45255 5.64039 53.5014
RightForeArm  172.931 53.1244 166.827
RightHand  -0.0698552 -0.129969 -1.44416
LeftUpLeg  -3.84971 19.5698 3.20267
LeftLeg  14.4265 14.8594 0.590957
LeftFoot  -4.66293 0.271912 -4.18121
LeftToes  1.06245e-005 4.65869e-005 -8.65517e-006
658
root  11.4996 40.07 10.8269 18.3883 78.3369 19.0402
RightUpLeg  -11.7747 -14.7235 -12.8422
RightLeg  15.8618 -0.577315 -0.040241
RightFoot  0.764715 -0.518896 4.93847
RightToes  0.000481921 0.542163 -0.142578
Spine  19.6541 -2.99175 -0.105238
Spine1  7.68046 -5.50863 8.64166
HEad  -5.53267 14.7509 -13.3335
LeftShoulder1  6.1339 -11.7079 -34.2706
LeftArm  -9.22352 -12.9894 -46.0234
LeftForeArm  -167.462 -46.5239 -170.745
LeftHand  -0.25398 0.0180481 5.50724
RightShoulder  4.41737 9.35551 28.3535
RightArm  8.03052 6.58271 55.8806
RightForeArm  173.31 48.6801 168.721
RightHand  -0.154883 2.22519 -2.60349
LeftUpLeg  -4.88383 21.2348 3.12084
LeftLeg  14.8002 13.8748 0.977448
LeftFoot  -4.61785 0.282712 -4.34083
LeftToes  1.06245e-005 4.65869e-005 -8.65517e-006
659
root  11.3315 40.0033 10.8718 16.6521 77.7181 16.617
RightUpLeg  -13.1687 -15.0166 -12.0379
RightLeg  16.2514 -0.0547765 0.174073
RightFoot  0.727512 -0.495206 4.7279
RightToes  0.000481921 0.542163 -0.142578
Spine  21.2875 -3.54805 -1.37876
Spine1  6.94776 -7.05241 11.6875
HEad  -5.80341 17.5636 -14.6471
LeftShoulder1  5.79804 -11.2082 -33.3646
LeftArm  -10.8254 -15.2296 -46.2273
LeftForeArm  -167.922 -46.0728 -170.863
LeftHand  -0.25398 0.0180481 5.50724
RightShoulder  4.20333 9.14665 27.1926
RightArm  6.11128 9.47911 56.0291
RightForeArm  175.337 46.397 169.682
RightHand  -0.19059 3.29296 -2.84546
LeftUpLeg  -6.75549 25.1443 2.69425
LeftLeg  16.2305 10.6544 1.90939
LeftFoot  -5.07716 0.269875 -4.37397
LeftToes  1.06245e-005 4.65869e-005 -8.65517e-006
660
root  11.1562 39.8662 10.8394 14.3884 76.8633 13.721
RightUpLeg  -14.9202 -15.8196 -11.1504
RightLeg  17.2588 1.19296 0.535414
RightFoot  0.462121 -0.48985 4.76622
RightToes  0.000481921 0.542163 -0.142578
Spine  22.8541 -3.82359 -1.60314
Spine1  6.605 -7.85337 13.5457
HEad  -6.26734 19.3214 -15.3237
LeftShoulder1  5.45708 -10.7664 -32.2009
LeftArm  -11.8721 -18.6775 -46.8984
LeftForeArm  -168.801 -46.7464 -170.584
LeftHand  -0.25398 0.0180481 5.50724
RightShoulder  3.93483 8.76942 25.9825
RightArm  1.04511 12.54 54.1192
RightForeArm  177.844 46.2199 169.901
RightHand  -0.178644 3.08233 -2.73329
LeftUpLeg  -9.13091 28.7317 2.10113
LeftLeg  18.5905 7.91083 3.07828
LeftFoot  -6.01237 0.241765 -4.41961
LeftToes  1.06245e-005 4.65869e-005 -8.65517e-006
661
root  10.987 39.657 10.7636 12.5126 75.7964 11.5579
RightUpLeg  -16.9174 -16.2765 -10.4371
RightLeg  19.2919 2.40052 0.796375
RightFoot  -0.113577 -0.472744 4.79709
RightToes  0.000481921 0.542163 -0.142578
Spine  24.5598 -3.86584 -1.03408
Spine1  6.41207 -7.92299 14.0507
HEad  -7.13541 20.1746 -15.7285
LeftShoulder1  5.23512 -10.6488 -30.9453
LeftArm  -12.5236 -22.056 -47.6144
LeftForeArm  -168.781 -47.5727 -170.306
LeftHand  -0.25398 0.0180481 5.50724
RightShoulder  3.70268 8.38599 25.0284
RightArm  -4.72158 14.3856 51.0812
RightForeArm  178.364 47.6552 169.427
RightHand  -0.189939 1.94171 -3.23537
LeftUpLeg  -11.1642 29.1567 1.97644
LeftLeg  21.6645 8.39141 4.02282
LeftFoot  -7.23265 0.206968 -4.56165
LeftToes  1.06245e-005 4.65869e-005 -8.65517e-006
662
root  10.8424 39.3877 10.6871 11.2901 74.9528 10.4345
RightUpLeg  -18.8441 -15.4899 -10.1837
RightLeg  22.2359 2.29757 0.801044
RightFoot  -1.00073 -0.430075 4.67196
RightToes  0.000481921 0.542163 -0.142578
Spine  26.4111 -3.77096 -0.365805
Spine1  6.08395 -7.68945 14.1891
HEad  -8.2255 20.5073 -16.4114
LeftShoulder1  5.10967 -10.6811 -29.9634
LeftArm  -12.7624 -24.428 -48.4017
LeftForeArm  -167.942 -48.0892 -170.179
LeftHand  -0.25398 0.0180481 5.50724
RightShoulder  3.66266 8.35046 24.7695
RightArm  -9.74846 14.4325 47.1287
RightForeArm  177.427 48.8767 168.919
RightHand  -0.170035 0.168879 -3.53856
LeftUpLeg  -12.8217 28.9453 2.03968
LeftLeg  25.0708 9.15875 4.98025
LeftFoot  -8.58112 0.167822 -4.83376
LeftToes  1.06245e-005 4.65869e-005 -8.65517e-006
663
root  10.7449 39.0665 10.6399 10.6125 74.9061 10.0578
RightUpLeg  -20.5014 -14.3905 -10.2318
RightLeg  25.7318 1.27719 0.44099
RightFoot  -2.28186 -0.379541 4.59152
RightToes  0.000481921 0.542163 -0.142578
Spine  28.0095 -3.64766 0.112445
Spine1  5.68858 -7.51837 14.6813
HEad  -9.40255 20.357 -17.3243
LeftShoulder1  5.00744 -10.5938 -29.4531
LeftArm  -12.3068 -25.791 -49.4231
LeftForeArm  -167.561 -48.5087 -170.055
LeftHand  -0.25398 0.0180481 5.50724
RightShoulder  3.82023 8.63104 25.3787
RightArm  -14.6152 12.3684 42.0438
RightForeArm  176.316 47.8443 169.215
RightHand  -0.116315 -0.781736 -2.81753
LeftUpLeg  -14.3633 28.2365 2.16788
LeftLeg  28.6323 9.50726 5.92182
LeftFoot  -10.0573 0.118639 -5.22005
LeftToes  1.06245e-005 4.65869e-005 -8.65517e-006
664
root  10.7105 38.6836 10.6337 10.4744 75.9669 10.3705
RightUpLeg  -21.7525 -13.8297 -10.4818
RightLeg  29.665 -0.0290897 -0.25913
RightFoot  -4.1259 -0.332783 4.83714
RightToes  0.000481921 0.542163 -0.142578
Spine  29.009 -3.64049 0.233847
Spine1  5.35711 -7.69633 15.7704
HEad  -10.4717 20.0324 -18.1283
LeftShoulder1  4.95702 -10.4699 -29.4061
LeftArm  -11.5513 -26.0809 -50.174
LeftForeArm  -167.872 -48.8029 -169.93
LeftHand  -0.25398 0.0180481 5.50724
RightShoulder  3.94044 8.6465 26.3739
RightArm  -19.2861 8.87291 36.7972
RightForeArm  174.5 44.8927 170.129
RightHand  -0.126796 0.142948 -2.62636
LeftUpLeg  -15.8837 26.6579 2.3706
LeftLeg  32.3901 9.50884 6.79498
LeftFoot  -11.7431 0.0504602 -5.63824
LeftToes  1.06245e-005 4.65869e-005 -8.65517e-006
665
root  10.7389 38.2318 10.6679 10.3756 77.8423 11.0538
RightUpLeg  -22.4304 -13.6304 -10.8706
RightLeg  33.9714 -1.3837 -1.26105
RightFoot  -6.44342 -0.274379 5.39483
RightToes  0.000481921 0.542163 -0.142578
Spine  29.4726 -3.75108 -0.277429
Spine1  5.08206 -8.30754 17.4604
HEad  -10.8628 20.1595 -18.5869
LeftShoulder1  5.00492 -10.4739 -29.7437
LeftArm  -11.3019 -25.1163 -49.9379
LeftForeArm  -167.961 -48.7072 -169.958
LeftHand  -0.25398 0.0180481 5.50724
RightShoulder  3.80761 8.03253 26.9647
RightArm  -23.481 5.72261 32.6391
RightForeArm  172.047 42.5033 170.747
RightHand  -0.251045 1.75219 -4.27021
LeftUpLeg  -17.1571 24.7577 2.83358
LeftLeg  36.3923 9.02139 7.43525
LeftFoot  -13.6166 -0.0370301 -5.97127
LeftToes  1.06245e-005 4.65869e-005 -8.65517e-006
666
root  10.8131 37.7439 10.727 8.79559 79.7337 10.7445
RightUpLeg  -22.4348 -13.1966 -11.1286
RightLeg  38.2464 -2.61164 -2.48214
RightFoot  -8.76474 -0.195665 6.0415
RightToes  0.000481921 0.542163 -0.142578
Spine  29.6705 -3.78014 -1.2565
Spine1  4.98179 -8.96019 19.1012
HEad  -10.2101 20.7173 -18.4315
LeftShoulder1  5.07258 -10.5002 -30.1666
LeftArm  -11.5481 -23.44 -48.9464
LeftForeArm  -167.497 -48.4341 -170.086
LeftHand  -0.25398 0.0180481 5.50724
RightShoulder  3.47885 7.08722 26.7967
RightArm  -28.3395 3.91689 29.4166
RightForeArm  171.052 42.0524 170.82
RightHand  -0.318048 1.74763 -5.3591
LeftUpLeg  -17.7992 23.6112 3.86922
LeftLeg  40.4252 7.95622 7.57881
LeftFoot  -15.5025 -0.130113 -6.13806
LeftToes  1.06245e-005 4.65869e-005 -8.65517e-006
667
root  10.917 37.2974 10.7773 4.80292 80.9483 8.38495
RightUpLeg  -21.8401 -12.3696 -11.1263
RightLeg  41.8333 -3.4875 -3.631
RightFoot  -10.6461 -0.112875 6.64027
RightToes  0.000481921 0.542163 -0.142578
Spine  29.6964 -3.56747 -2.06719
Spine1  5.25597 -9.11666 19.6832
HEad  -9.04637 20.9426 -17.6584
LeftShoulder1  5.06888 -10.4334 -30.3148
LeftArm  -11.659 -21.9176 -48.0259
LeftForeArm  -167.019 -48.416 -170.122
LeftHand  -0.25398 0.0180481 5.50724
RightShoulder  3.14464 6.2805 26.0649
RightArm  -34.9028 3.02808 26.1555
RightForeArm  172.775 42.5268 170.781
RightHand  -0.152033 -0.0855498 -3.18189
LeftUpLeg  -17.582 23.5469 5.43376
LeftLeg  43.9493 6.68671 7.25946
LeftFoot  -17.1858 -0.21211 -6.16864
LeftToes  1.06245e-005 4.65869e-005 -8.65517e-006
668
root  11.0526 36.9844 10.7875 0.591492 81.4683 5.76875
RightUpLeg  -20.8147 -11.6079 -11.1738
RightLeg  44.1684 -3.8961 -4.35222
RightFoot  -11.992 -0.0411759 7.13238
RightToes  0.000481921 0.542163 -0.142578
Spine  29.4343 -3.19841 -2.50006
Spine1  5.75996 -8.76091 19.0926
HEad  -8.20937 20.5281 -16.9604
LeftShoulder1  5.05642 -10.4157 -30.2711
LeftArm  -11.5966 -20.5396 -47.3735
LeftForeArm  -166.861 -48.5252 -170.094
LeftHand  -0.25398 0.0180481 5.50724
RightShoulder  2.84744 5.64758 24.9931
RightArm  -42.2207 2.74407 22.5758
RightForeArm  174.945 42.4147 170.949
RightHand  -0.0206622 -1.10023 -0.454765
LeftUpLeg  -16.6393 23.7495 6.87039
LeftLeg  46.3117 5.82735 6.92159
LeftFoot  -18.4809 -0.276491 -6.20088
LeftToes  1.06245e-005 4.65869e-005 -8.65517e-006
669
root  11.2255 36.8699 10.7512 -1.36453 81.8922 4.98933
RightUpLeg  -19.4285 -11.3906 -11.5353
RightLeg  44.9515 -4.00913 -4.59317
RightFoot  -12.8561 0.0108356 7.43158
RightToes  0.000481921 0.542163 -0.142578
Spine  28.7874 -2.92367 -2.9395
Spine1  5.98741 -8.37018 18.2406
HEad  -7.67931 20.0704 -16.9449
LeftShoulder1  5.14619 -10.5904 -30.4597
LeftArm  -11.8224 -18.5585 -46.5831
LeftForeArm  -166.781 -48.305 -170.177
LeftHand  -0.25398 0.0180481 5.50724
RightShoulder  2.49148 4.87273 23.5443
RightArm  -49.0264 3.45722 19.2684
RightForeArm  173.56 41.5197 171.136
RightHand  -0.078511 -0.295474 -1.57918
LeftUpLeg  -15.3867 23.2218 7.5467
LeftLeg  47.1358 5.66844 6.93344
LeftFoot  -19.2182 -0.321908 -6.34305
LeftToes  1.06245e-005 4.65869e-005 -8.65517e-006
670
root  11.4248 36.9511 10.7004 -2.35323 82.8361 4.59511
RightUpLeg  -17.7057 -11.8783 -11.9212
RightLeg  44.2611 -4.159 -4.64223
RightFoot  -13.2553 0.0365429 7.57087
RightToes  0.000481921 0.542163 -0.142578
Spine  27.8424 -2.91463 -3.63371
Spine1  5.58541 -8.31252 17.8878
HEad  -6.70766 20.0568 -17.1184
LeftShoulder1  5.30513 -10.8331 -30.9569
LeftArm  -12.1926 -15.7557 -45.6325
LeftForeArm  -166.463 -47.7486 -170.391
LeftHand  -0.25398 0.0180481 5.50724
RightShoulder  2.0498 3.80495 21.7416
RightArm  -55.1066 4.96765 16.6811
RightForeArm  169.128 40.7418 171.098
RightHand  -0.208034 0.695047 -4.16802
LeftUpLeg  -14.2903 21.672 7.61027
LeftLeg  46.623 5.97946 7.15753
LeftFoot  -19.3006 -0.339633 -6.54037
LeftToes  1.06245e-005 4.65869e-005 -8.65517e-006
671
root  11.6247 37.1873 10.6829 -8.46925 84.6763 -1.51884
RightUpLeg  -15.6848 -13.2301 -11.9154
RightLeg  42.3546 -4.57728 -4.75528
RightFoot  -13.1747 0.034837 7.7668
RightToes  0.000481921 0.542163 -0.142578
Spine  26.7184 -3.16575 -4.59618
Spine1  4.55584 -8.6335 18.2848
HEad  -4.98068 20.1663 -16.5107
LeftShoulder1  5.40656 -10.9438 -31.3792
LeftArm  -12.063 -12.7268 -44.9604
LeftForeArm  -165.831 -47.197 -170.618
LeftHand  -0.25398 0.0180481 5.50724
RightShoulder  1.58399 2.53401 19.8014
RightArm  -59.6576 6.35611 14.7294
RightForeArm  167.532 40.7966 170.985
RightHand  -0.132958 -0.0625075 -2.68586
LeftUpLeg  -13.6684 19.3522 7.60651
LeftLeg  45.1801 6.28335 7.13968
LeftFoot  -18.708 -0.312203 -6.58513
LeftToes  1.06245e-005 4.65869e-005 -8.65517e-006
